# xmcd
#
# Track frame offsets:
#	150
#	11239
#	24523
#	36835
#	48911
#	59006
#	71631
#	83767
#	98376
#	111422
#	123156
#	134477
#	149008
#	161159
#	174277
#	186195
#	198614
#	212692
#	227412
#	237798
#	250701
#	264457
#	275051
#	286385
#	297487
#
# Disc length: 4100 seconds
#
# Revision: 0
# Processed by: cddbd v1.5.1PL0 Copyright (c) Steve Scherf et al.
# Submitted via: EasyCDDAExtractor 7.5.0.1
#
DISCID=79100219
DTITLE=Red Foley - Chattanoogie Shoe Shine Boy
DYEAR=2001
DGENRE=Country and Western
TTITLE0=Sugarfoot Rag
TTITLE1=Smoke On The Water (With The Cumberland Valley Boys)
TTITLE2=Tennessee Border
TTITLE3=Tennessee Saturday Night (With The Cumberland Boys)
TTITLE4=When God Dips His Love In My Heart
TTITLE5=Chattanoogie Shoe Shine Boy
TTITLE6=Playin' Dominoes And Shootin' Dice
TTITLE7=Midnight
TTITLE8=Old Kentucky Fox Chase
TTITLE9=Pin Ball Boogie
TTITLE10=Skinny Minnie (Fishtail)
TTITLE11=(There'll Be) Peace In The Valley (For Me) (With The Cumberland Boys)
TTITLE12=My Window Faces The South (Grady Martin and His Winging Strings)
TTITLE13=Love Bug Itch (With Ernest Tubb And Minnie Pearl)
TTITLE14=Hot Toddy
TTITLE15=Milk Bucket Boogie
TTITLE16=New Jolie Blonde (New Pretty Blonde) (With The Cumberland Boys)
TTITLE17=Old Shep (With Roy Ross And His Ramblers)
TTITLE18=Plantation Boogie
TTITLE19=(A) Satisfied Mind (With Betty Foley)
TTITLE20=Birmingham Bounce
TTITLE21=Hearts Of Stone (With The Anita Kerr Singers)
TTITLE22=Hot Rod Race
TTITLE23=Rockin' And Reelin'
TTITLE24=Crazy Little Guitar Man
EXTD=
EXTT0=
EXTT1=
EXTT2=
EXTT3=
EXTT4=
EXTT5=
EXTT6=
EXTT7=
EXTT8=
EXTT9=
EXTT10=
EXTT11=
EXTT12=
EXTT13=
EXTT14=
EXTT15=
EXTT16=
EXTT17=
EXTT18=
EXTT19=
EXTT20=
EXTT21=
EXTT22=
EXTT23=
EXTT24=
PLAYORDER=
